# xmcd
#
# Track frame offsets:
# 150
# 4333
# 7962
# 11645
# 26436
# 41895
# 66266
# 69424
# 82766
# 85206
# 99197
# 121090
# 124775
# 140248
# 143105
# 146114
# 149495
# 153028
# 156185
# 168192
# 199401
# 212908
# 224918
#
# Disc length: 3015 seconds
#
#
# Revision: 1
# Processed by: cddbd v1.5.2PL0 Copyright (c) Steve Scherf et al.
# Submitted via: FreeRIP 2.52 
#
DISCID=4c0bc517
DTITLE=Wolf Marshall - Best of Wes Montgomery
DYEAR=2001
DGENRE=Jazz
TTITLE0=Introduction
TTITLE1=Tuning
TTITLE2=Missile Blues
TTITLE3=Missile Blues
TTITLE4=Yesterdays
TTITLE5=West Coast Blues
TTITLE6=Cariba
TTITLE7=Cariba
TTITLE8=I've Grown Accustomed To Her Face
TTITLE9=I've Grown Accustomed To Her Face
TTITLE10=Bésame Mucho
TTITLE11=Fried Pies
TTITLE12=Fried Pies
TTITLE13=Mi Cosa
TTITLE14=Mi Cosa
TTITLE15=Mi Cosa
TTITLE16=Mi Cosa
TTITLE17=Mi Cosa
TTITLE18=Four On Six
TTITLE19=Misty
TTITLE20=Sundown
TTITLE21=O.G.D.
TTITLE22=Conclusion
EXTD=YEAR: 2001
EXTT0=
EXTT1=
EXTT2=
EXTT3=
EXTT4=
EXTT5=
EXTT6=
EXTT7=
EXTT8=
EXTT9=
EXTT10=
EXTT11=
EXTT12=
EXTT13=
EXTT14=
EXTT15=
EXTT16=
EXTT17=
EXTT18=
EXTT19=
EXTT20=
EXTT21=
EXTT22=
PLAYORDER=
